<svg xmlns="http://www.w3.org/2000/svg" style="position:absolute;width:0;height:0;overflow:hidden" aria-hidden="true" focusable="false">
  <defs>
    <!-- ─── Severity glyphs ───────────────────────────────────────
         Each glyph uses currentColor so the consumer drives the hue
         (severity classes in CSS map currentColor to the right
         palette var). 24x24 viewBox; designed legible at 12-32px. -->
    <symbol id="i-sev-critical" viewBox="0 0 24 24">
      <path fill="currentColor" d="M12 2 1 22h22L12 2zm0 5.6 7.7 13.6H4.3L12 7.6z"/>
      <path fill="currentColor" d="M11 11h2v5h-2zm0 6h2v2h-2z"/>
    </symbol>
    <symbol id="i-sev-high" viewBox="0 0 24 24">
      <circle cx="12" cy="12" r="10" fill="currentColor"/>
      <path fill="var(--panel)" d="M11 6h2v8h-2zm0 10h2v2h-2z"/>
    </symbol>
    <symbol id="i-sev-medium" viewBox="0 0 24 24">
      <circle cx="12" cy="12" r="9" fill="none" stroke="currentColor" stroke-width="2"/>
      <path fill="currentColor" d="M11 7h2v7h-2zm0 9h2v2h-2z"/>
    </symbol>
    <symbol id="i-sev-low" viewBox="0 0 24 24">
      <path fill="none" stroke="currentColor" stroke-width="2.4" stroke-linecap="round" stroke-linejoin="round" d="M6 10l6 6 6-6"/>
    </symbol>
    <symbol id="i-sev-info" viewBox="0 0 24 24">
      <circle cx="12" cy="12" r="9" fill="none" stroke="currentColor" stroke-width="2"/>
      <path fill="currentColor" d="M11 11h2v6h-2zm0-4h2v2h-2z"/>
    </symbol>

    <!-- ─── Status glyphs ─────────────────────────────────────────
         Pass / fail / skip / error / waived. Stroked so they read
         well even at 12px. -->
    <symbol id="i-status-pass" viewBox="0 0 24 24">
      <path fill="none" stroke="currentColor" stroke-width="2.6" stroke-linecap="round" stroke-linejoin="round" d="M5 12l4.5 4.5L19 7"/>
    </symbol>
    <symbol id="i-status-fail" viewBox="0 0 24 24">
      <path fill="none" stroke="currentColor" stroke-width="2.6" stroke-linecap="round" d="M6 6l12 12M18 6L6 18"/>
    </symbol>
    <symbol id="i-status-skip" viewBox="0 0 24 24">
      <circle cx="12" cy="12" r="9" fill="none" stroke="currentColor" stroke-width="2"/>
      <path fill="none" stroke="currentColor" stroke-width="2.2" stroke-linecap="round" d="M7 12h10"/>
    </symbol>
    <symbol id="i-status-error" viewBox="0 0 24 24">
      <path fill="currentColor" d="M12 2 1 22h22L12 2z"/>
      <path fill="var(--panel)" d="M11 10h2v6h-2zm0 7h2v2h-2z"/>
    </symbol>
    <symbol id="i-status-waived" viewBox="0 0 24 24">
      <path fill="none" stroke="currentColor" stroke-width="2" stroke-linecap="round" stroke-linejoin="round" d="M12 2l9 4-1 7c-.6 4-3.6 7-8 9-4.4-2-7.4-5-8-9L4 6l8-4z"/>
    </symbol>

    <!-- ─── Theme toggle ─────────────────────────────────────────── -->
    <symbol id="i-theme-light" viewBox="0 0 24 24">
      <circle cx="12" cy="12" r="4" fill="currentColor"/>
      <g stroke="currentColor" stroke-width="2" stroke-linecap="round">
        <path d="M12 2v3M12 19v3M2 12h3M19 12h3M4.9 4.9l2.1 2.1M17 17l2.1 2.1M4.9 19.1L7 17M17 7l2.1-2.1"/>
      </g>
    </symbol>
    <symbol id="i-theme-dark" viewBox="0 0 24 24">
      <path fill="currentColor" d="M21 12.8A9 9 0 1 1 11.2 3a7 7 0 0 0 9.8 9.8z"/>
    </symbol>
    <symbol id="i-theme-system" viewBox="0 0 24 24">
      <rect x="2.5" y="4" width="19" height="13" rx="1.5" fill="none" stroke="currentColor" stroke-width="2"/>
      <path stroke="currentColor" stroke-width="2" stroke-linecap="round" d="M8 21h8M12 17v4"/>
    </symbol>

    <!-- ─── Provider logos ────────────────────────────────────────
         Monochrome simplifications, recognizable at 16-24px, no
         brand-colored fills (kept neutral so the theme toggle keeps
         working). Specific shapes chosen to evoke each ecosystem
         without infringing on any trademark. -->
    <symbol id="i-prov-aws" viewBox="0 0 24 24">
      <path fill="currentColor" d="M5.4 13.2c0 .4.1.7.2 1 .1.2.2.5.3.7l.1.2v.1l-.1.3-.6.4h-.2l-.2-.1-.4-.5-.3-.6c-.8.9-1.7 1.3-2.6 1.3-.7 0-1.3-.2-1.7-.6-.4-.4-.6-1-.6-1.7s.3-1.3.8-1.7c.6-.5 1.3-.7 2.2-.7h1.1v-.5c0-.4-.1-.7-.3-1-.2-.2-.5-.3-.9-.3-.5 0-1 .1-1.8.3h-.3l-.2-.1V9.4l.1-.2.4-.2c.4-.2.8-.3 1.3-.4l1.1-.1c.8 0 1.4.2 1.8.6.4.4.6 1 .6 1.7v2.4zm-3.7 1.4c.3 0 .6-.1 1-.2.4-.1.7-.4.9-.7l.2-.3v-.4l-.4-.1H2.9c-.4 0-.7.1-.9.2s-.3.4-.3.7c0 .3.1.5.2.7.2.1.4.1.7.1zm7.4 1 .3-.1.1-.2 2.1-7c0-.1.1-.2.1-.2l-.1-.2-.2-.1H10.8l-.3.1-.1.2-1.5 6.1L7.4 8l-.1-.2-.3-.1h-.5l-.3.1-.1.2L4.6 14l-.1.2-.1.2.1.2.3.1h.7l.3-.1.1-.2 1.5-6 1.4 6 .2.2.3.1z"/>
      <path fill="currentColor" d="M19 16c-.4 0-.9-.1-1.3-.2l-1-.4-.2-.2v-.5c0-.2.1-.2.2-.2h.4l.3.1c.3.1.6.2.9.3l1 .1c.5 0 1-.1 1.2-.3.3-.2.5-.5.5-.8s-.1-.5-.3-.6c-.2-.2-.5-.3-.9-.4l-1.1-.4c-.6-.2-1-.4-1.3-.8-.3-.3-.4-.7-.4-1.1s.1-.6.2-.9c.2-.2.4-.5.6-.6.3-.2.5-.3.9-.4.3-.1.7-.1 1-.1h.6c.2 0 .4.1.6.1l.5.2.4.2.2.2.1.3v.3c0 .2 0 .3-.2.3l-.4-.1c-.5-.2-1.1-.4-1.7-.4-.5 0-.9.1-1.2.2-.3.2-.4.4-.4.7s.1.5.3.7c.2.2.5.3 1 .5l1 .4c.5.2.9.4 1.1.7.2.3.4.6.4 1 0 .3-.1.6-.2.9-.1.2-.3.5-.6.7-.2.2-.5.3-.9.4-.3.1-.7.2-1 .2z"/>
    </symbol>
    <symbol id="i-prov-gcp" viewBox="0 0 24 24">
      <path fill="currentColor" d="M16.6 9.6 19 13.5l-.5.5h-2.7c1.2-.7 2-2 2-3.5 0-.3 0-.6-.1-.9zM12 4c2.6 0 4.9 1.7 5.8 4-.4-.1-.8-.2-1.2-.2H15c-.5-1.8-2.2-3-4-3-2.2 0-4 1.7-4 3.9 0 .4.1.7.2 1.1-2 .3-3.5 2-3.5 4 0 2.3 1.8 4.1 4.1 4.1H17c2.2 0 4-1.7 4-3.9 0-1.1-.4-2-1.1-2.7v-.2L17.4 8c.9 1 1.4 2.4 1.4 3.8 0 3-2.4 5.4-5.4 5.4H7.4C4.4 17.2 2 14.8 2 11.8c0-2.7 2-5 4.6-5.4C7.4 4.9 9.6 4 12 4z"/>
    </symbol>
    <symbol id="i-prov-azure" viewBox="0 0 24 24">
      <path fill="currentColor" d="M14 4 6 20h6l1.5-4 4 4h4L14 4zm-1 4.5 4.7 11h-3l-3.2-3.5L11 19H7l6-10.5z"/>
    </symbol>
    <symbol id="i-prov-do" viewBox="0 0 24 24">
      <path fill="currentColor" d="M12 2C6.5 2 2 6.5 2 12v8h8c5.5 0 10-4.5 10-10S17.5 2 12 2zm0 16H6v-6h6v6zm-2-8H6.5v-3.5H10V10zm3.5 0H10V6.5h3.5V10z"/>
    </symbol>
    <symbol id="i-prov-hetzner" viewBox="0 0 24 24">
      <path fill="currentColor" d="M4 4v16h3.5v-6.5h9V20H20V4h-3.5v6.5h-9V4H4z"/>
    </symbol>
    <symbol id="i-prov-k8s" viewBox="0 0 24 24">
      <path fill="currentColor" d="M12 1.5 2 6v10l10 6.5L22 16V6L12 1.5zm0 2.7 7.5 3.3-.5 7.4-7 4.4-7-4.4L4.5 7.5 12 4.2zm0 3.6L7.6 10l.6 4.4L12 16.7l3.8-2.3L16.4 10 12 7.8z"/>
    </symbol>
    <symbol id="i-prov-linux" viewBox="0 0 24 24">
      <path fill="currentColor" d="M12 2c-2 0-3.5 1.8-3.5 4.5 0 1.3.3 2.5.8 3.3-1.3 1.8-3 4-3 6.4 0 2 1.5 3.8 5.7 3.8s5.7-1.8 5.7-3.8c0-2.4-1.7-4.6-3-6.4.5-.8.8-2 .8-3.3C15.5 3.8 14 2 12 2zm-1.5 4a1 1 0 1 1 0 2 1 1 0 0 1 0-2zm3 0a1 1 0 1 1 0 2 1 1 0 0 1 0-2z"/>
    </symbol>
    <symbol id="i-prov-github" viewBox="0 0 24 24">
      <path fill="currentColor" d="M12 .3a12 12 0 0 0-3.8 23.4c.6.1.8-.3.8-.6v-2.2c-3.3.7-4-1.6-4-1.6-.6-1.4-1.4-1.8-1.4-1.8-1.1-.7.1-.7.1-.7 1.2.1 1.9 1.2 1.9 1.2 1.1 1.9 2.9 1.4 3.6 1 .1-.8.4-1.4.8-1.7-2.7-.3-5.5-1.3-5.5-6 0-1.3.5-2.4 1.2-3.2-.1-.3-.5-1.5.1-3.2 0 0 1-.3 3.3 1.2a11.5 11.5 0 0 1 6 0c2.3-1.5 3.3-1.2 3.3-1.2.7 1.7.2 2.9.1 3.2.8.8 1.2 1.9 1.2 3.2 0 4.6-2.8 5.7-5.5 6 .4.4.8 1.1.8 2.2v3.3c0 .3.2.7.8.6A12 12 0 0 0 12 .3z"/>
    </symbol>
    <symbol id="i-prov-generic" viewBox="0 0 24 24">
      <rect x="3" y="6" width="18" height="12" rx="1.5" fill="none" stroke="currentColor" stroke-width="2"/>
      <path stroke="currentColor" stroke-width="2" stroke-linecap="round" d="M3 10h18M7 14h4"/>
    </symbol>
  </defs>
</svg>
